# xmcd
#
# Track frame offsets:
#	150
#	11654
#	23946
#	36288
#	50068
#	58486
#	70203
#	81999
#	93609
#	109586
#	122363
#	135449
#	146394
#	168473
#	188650
#
# Disc length: 2652 seconds
# Revision: 0
# Processed by: cddbd v1.5.2PL0 Copyright (c) Steve Scherf et al.
# Submitted via: dBpowerAMP V12.0
#
DISCID=d10a5a0f
DTITLE=Dail Platz - Johnny Cash Tribute Show
DYEAR=2008
DGENRE=Country
TTITLE0=Folsom Prison Blues
TTITLE1=Ring of Fire
TTITLE2=I Walk The Line
TTITLE3=Chicken in Black
TTITLE4=I Guess Things Happen That Way
TTITLE5=The Wreck of The Old 97
TTITLE6=Understand Your Man
TTITLE7=Long Black Veil
TTITLE8=A Boy Named Sue
TTITLE9=Don't Take Your Guns to Town
TTITLE10=Man in Black
TTITLE11=Big River
TTITLE12=City of New Orleans
TTITLE13=Poncho and Lefty
TTITLE14=On The Road Again
EXTD=
EXTT0=
EXTT1=
EXTT2=
EXTT3=
EXTT4=
EXTT5=
EXTT6=
EXTT7=
EXTT8=
EXTT9=
EXTT10=
EXTT11=
EXTT12=
EXTT13=
EXTT14=
PLAYORDER=
